{
	"asset":{
		"generator":"Khronos glTF Blender I/O v3.6.28",
		"version":"2.0"
	},
	"extensionsUsed":[
		"KHR_materials_specular",
		"KHR_materials_ior"
	],
	"scene":0,
	"scenes":[
		{
			"name":"Scene",
			"nodes":[
				0
			]
		}
	],
	"nodes":[
		{
			"mesh":0,
			"name":"SM_Transporter_404",
			"scale":[
				0.009999999776482582,
				0.009999999776482582,
				0.009999999776482582
			],
			"translation":[
				0.06463885307312012,
				0.7227038145065308,
				-0.0019495487213134766
			]
		}
	],
	"materials":[
		{
			"doubleSided":true,
			"extensions":{
				"KHR_materials_specular":{
					"specularColorTexture":{
						"index":0
					},
					"specularColorFactor":[
						1.7482950626863765,
						1.7482950626863765,
						1.7482950626863765
					]
				},
				"KHR_materials_ior":{
					"ior":1.4500000476837158
				}
			},
			"name":"M_Color_Master",
			"normalTexture":{
				"index":1
			},
			"pbrMetallicRoughness":{
				"baseColorTexture":{
					"index":2
				}
			}
		}
	],
	"meshes":[
		{
			"name":"SM_Transporter_400",
			"primitives":[
				{
					"attributes":{
						"POSITION":0,
						"NORMAL":1,
						"TEXCOORD_0":2,
						"TEXCOORD_1":3,
						"TEXCOORD_2":4
					},
					"indices":5,
					"material":0
				}
			]
		}
	],
	"textures":[
		{
			"sampler":0,
			"source":0
		},
		{
			"sampler":0,
			"source":1
		},
		{
			"sampler":0,
			"source":2
		}
	],
	"images":[
		{
			"bufferView":6,
			"mimeType":"image/png",
			"name":"Image"
		},
		{
			"bufferView":7,
			"mimeType":"image/png",
			"name":"M_Color_Master_M_Color_Master_N"
		},
		{
			"bufferView":8,
			"mimeType":"image/png",
			"name":"M_Color_Master_M_Color_Master_D"
		}
	],
	"accessors":[
		{
			"bufferView":0,
			"componentType":5126,
			"count":696,
			"max":[
				199.2755889892578,
				17.452730178833008,
				39.63189697265625
			],
			"min":[
				-200.7239227294922,
				-52.269859313964844,
				-40.36810302734375
			],
			"type":"VEC3"
		},
		{
			"bufferView":1,
			"componentType":5126,
			"count":696,
			"type":"VEC3"
		},
		{
			"bufferView":2,
			"componentType":5126,
			"count":696,
			"type":"VEC2"
		},
		{
			"bufferView":3,
			"componentType":5126,
			"count":696,
			"type":"VEC2"
		},
		{
			"bufferView":4,
			"componentType":5126,
			"count":696,
			"type":"VEC2"
		},
		{
			"bufferView":5,
			"componentType":5123,
			"count":1800,
			"type":"SCALAR"
		}
	],
	"bufferViews":[
		{
			"buffer":0,
			"byteLength":8352,
			"byteOffset":0,
			"target":34962
		},
		{
			"buffer":0,
			"byteLength":8352,
			"byteOffset":8352,
			"target":34962
		},
		{
			"buffer":0,
			"byteLength":5568,
			"byteOffset":16704,
			"target":34962
		},
		{
			"buffer":0,
			"byteLength":5568,
			"byteOffset":22272,
			"target":34962
		},
		{
			"buffer":0,
			"byteLength":5568,
			"byteOffset":27840,
			"target":34962
		},
		{
			"buffer":0,
			"byteLength":3600,
			"byteOffset":33408,
			"target":34963
		},
		{
			"buffer":0,
			"byteLength":15587,
			"byteOffset":37008
		},
		{
			"buffer":0,
			"byteLength":15588,
			"byteOffset":52596
		},
		{
			"buffer":0,
			"byteLength":21217,
			"byteOffset":68184
		}
	],
	"samplers":[
		{
			"magFilter":9729,
			"minFilter":9987
		}
	],
	"buffers":[
		{
			"byteLength":89404,
			"uri":"data:application/octet-stream;base64,"
		}
	]
}
